# xmcd
#
# Track frame offsets:
#	150
#	13648
#	27997
#	42898
#	56148
#	72277
#	88090
#	106097
#	120221
#	136503
#	152215
#	177994
#
# Disc length: 2579 seconds
#
# Revision: 2
# Processed by: cddbd v1.5.2PL0 Copyright (c) Steve Scherf et al.
# Submitted via: audiograbber 1.83.01
#
DISCID=920a110c
DTITLE=Sting and Shaggy - 44/876-Super Deluxe Edition
DYEAR=2018
DGENRE=Rock
TTITLE0=44/876 [featuring Morgan Heritage and Aidonia]
TTITLE1=Morning Is Coming
TTITLE2=Waiting For The Break Of Day
TTITLE3=Gotta Get Back My Baby
TTITLE4=Don't Make Me Wait
TTITLE5=Just One Lifetime
TTITLE6=22nd Street
TTITLE7=Dreaming In The U.S.A.
TTITLE8=Crooked Tree
TTITLE9=To Love And Be Loved
TTITLE10=Sad Trombone
TTITLE11=Night Shift
EXTD=
EXTT0=
EXTT1=
EXTT2=
EXTT3=
EXTT4=
EXTT5=
EXTT6=
EXTT7=
EXTT8=
EXTT9=
EXTT10=
EXTT11=
PLAYORDER=
